<svg xmlns="http://www.w3.org/2000/svg" width="32" height="32"><g fill-rule="nonzero" fill="none"><path fill="#4AC2B6" d="M15.999 32.004s11.569-11.853 11.569-20.313c0-6.455-5.179-11.688-11.57-11.688C9.611.003 4.496 5.236 4.43 11.691 4.346 20.151 16 32.004 16 32.004"/><path fill="#FFF" d="M21.568 10.961c.004.494-1.134.524-1.644.526l-8.238.046c-.511.002-1.35.127-1.353-.366l.415-3.043c-.006-.942.936-1.64 1.853-1.644l6.372-.033c1.416-.009 2.13 1.284 2.132 1.777l.463 2.737zm2.262-1.746c-.173-.307-.702-.285-1.187.05-.175.124-.322.27-.428.424l-.43-2.14c-.107-1.309-1.912-1.953-2.393-1.952l-7.37.043c-1.475.007-2.092 1.669-2.09 2.137l-.307 1.821a1.686 1.686 0 00-.363-.338c-.486-.333-1.015-.353-1.188-.045-.171.306.084.825.567 1.158.112.076.227.135.337.178-.665.293-1.28.941-.979 2.392l.454 2.587c.002.308.14.581.349.748l.175.153.003.895c.003.512.378.926.84.923l.244-.002c.463-.001.834-.42.832-.933l-.003-.705 10.136-.056.002.709c.004.513.379.928.842.923h.245c.46-.003.832-.42.832-.933l-.005-.77.195-.113a.843.843 0 00.282-.388l.003-.013.042-.146.008-.044.013-.166.505-2.675c0-.406.084-1.808-1.087-2.37.12-.044.242-.109.36-.192.484-.335.738-.854.564-1.16"/></g></svg>